<svg xmlns="http://www.w3.org/2000/svg" width="127.697" height="34.046" viewBox="0 0 127.697 34.046">
  <g id="Page-1" transform="translate(-123 -61)">
    <g id="Group" transform="translate(123 61)">
      <g id="aivalable-on-the-app-store-2">
        <path id="Shape" d="M143.283,76.806a6.752,6.752,0,0,1,3.23-5.667,6.957,6.957,0,0,0-5.471-2.945c-2.3-.241-4.534,1.371-5.706,1.371-1.2,0-3-1.348-4.947-1.308a7.288,7.288,0,0,0-6.131,3.723c-2.651,4.57-.674,11.287,1.866,14.981,1.271,1.81,2.755,3.829,4.7,3.758,1.9-.077,2.611-1.206,4.906-1.206,2.273,0,2.94,1.206,4.922,1.16,2.041-.031,3.325-1.817,4.551-3.643a14.91,14.91,0,0,0,2.081-4.221,6.538,6.538,0,0,1-4-6Zm-3.744-11.042A6.629,6.629,0,0,0,141.067,61a6.81,6.81,0,0,0-4.4,2.265,6.309,6.309,0,0,0-1.568,4.588,5.626,5.626,0,0,0,4.437-2.089Z" transform="translate(-123 -61)" fill="#fff"/>
        <g id="Group-2" data-name="Group" transform="translate(34.691 13.629)">
          <path id="Shape-2" data-name="Shape" d="M13.235,16.652H10.586L9.134,12.064H4.09L2.708,16.652H.129l5-15.619H8.214ZM8.7,10.139,7.385,6.061Q7.177,5.436,6.6,3.118H6.555q-.231,1-.737,2.942l-1.29,4.079Zm17.368.743a6.4,6.4,0,0,1-1.552,4.541,4.536,4.536,0,0,1-3.451,1.484,3.448,3.448,0,0,1-3.2-1.6v5.91H15.379V9.091q0-1.8-.092-3.7h2.187l.139,1.785h.047a4.138,4.138,0,0,1,3.777-2.018,4.142,4.142,0,0,1,3.3,1.575,6.254,6.254,0,0,1,1.323,4.15Zm-2.534.092a4.664,4.664,0,0,0-.737-2.712A2.543,2.543,0,0,0,20.628,7.15a2.577,2.577,0,0,0-1.669.614,2.849,2.849,0,0,0-.979,1.611,3.286,3.286,0,0,0-.115.762v1.879a3.024,3.024,0,0,0,.749,2.075,2.479,2.479,0,0,0,1.946.846,2.543,2.543,0,0,0,2.187-1.089,4.816,4.816,0,0,0,.784-2.874Zm15.409-.092a6.4,6.4,0,0,1-1.552,4.541,4.539,4.539,0,0,1-3.452,1.484,3.448,3.448,0,0,1-3.2-1.6v5.91H28.253V9.091q0-1.8-.092-3.7h2.187l.139,1.785h.047a4.41,4.41,0,0,1,7.083-.443A6.259,6.259,0,0,1,38.94,10.882Zm-2.535.092a4.664,4.664,0,0,0-.738-2.712A2.539,2.539,0,0,0,33.5,7.15a2.587,2.587,0,0,0-1.672.614,2.849,2.849,0,0,0-.978,1.611,3.362,3.362,0,0,0-.117.762v1.879a3.035,3.035,0,0,0,.748,2.075,2.484,2.484,0,0,0,1.948.846,2.541,2.541,0,0,0,2.187-1.089,4.815,4.815,0,0,0,.784-2.874Zm16.93,1.3a4.184,4.184,0,0,1-1.38,3.245,6.093,6.093,0,0,1-4.229,1.367,7.346,7.346,0,0,1-4.02-.973l.575-2.086a6.887,6.887,0,0,0,3.593.974,3.375,3.375,0,0,0,2.187-.637,2.087,2.087,0,0,0,.785-1.7,2.188,2.188,0,0,0-.646-1.6,5.983,5.983,0,0,0-2.142-1.2q-4.077-1.53-4.078-4.474A3.96,3.96,0,0,1,45.42,2.03,5.669,5.669,0,0,1,49.232.8a7.5,7.5,0,0,1,3.524.742l-.624,2.04a6.132,6.132,0,0,0-2.983-.718,3.021,3.021,0,0,0-2.058.649,1.863,1.863,0,0,0-.624,1.415,1.918,1.918,0,0,0,.715,1.529,8.043,8.043,0,0,0,2.256,1.2,7.645,7.645,0,0,1,2.948,1.9,3.972,3.972,0,0,1,.948,2.709Zm8.244-5H58.838v5.468q0,2.086,1.451,2.084a4.348,4.348,0,0,0,1.1-.116l.069,1.9a5.6,5.6,0,0,1-1.934.277,2.971,2.971,0,0,1-2.3-.9,4.457,4.457,0,0,1-.829-3.036V7.262H54.762V5.384h1.633V3.322l2.443-.742v2.8h2.741V7.267Zm12.344,3.661a6.2,6.2,0,0,1-1.475,4.264,5.241,5.241,0,0,1-4.1,1.715,5,5,0,0,1-3.928-1.643,6.013,6.013,0,0,1-1.463-4.148,6.151,6.151,0,0,1,1.508-4.286A5.213,5.213,0,0,1,68.534,5.16a5.1,5.1,0,0,1,3.96,1.645,5.934,5.934,0,0,1,1.429,4.122Zm-2.578.058a5.067,5.067,0,0,0-.666-2.657,2.46,2.46,0,0,0-2.235-1.341,2.5,2.5,0,0,0-2.281,1.341,5.151,5.151,0,0,0-.667,2.7,5.053,5.053,0,0,0,.667,2.659,2.543,2.543,0,0,0,4.495-.022,5.086,5.086,0,0,0,.687-2.683Zm10.666-3.4a4.293,4.293,0,0,0-.784-.069,2.342,2.342,0,0,0-2.027,1,3.774,3.774,0,0,0-.621,2.224v5.91H76.092V8.936q0-1.945-.072-3.546h2.166l.091,2.155h.069A3.864,3.864,0,0,1,79.59,5.76a3,3,0,0,1,1.8-.6,3.958,3.958,0,0,1,.622.046l0,2.387Zm11.123,2.9a5.9,5.9,0,0,1-.091,1.135H85.582a3.276,3.276,0,0,0,1.083,2.552,3.686,3.686,0,0,0,2.44.786,8.208,8.208,0,0,0,3.019-.532l.39,1.736a9.284,9.284,0,0,1-3.753.7,5.422,5.422,0,0,1-4.09-1.54,5.714,5.714,0,0,1-1.485-4.136,6.477,6.477,0,0,1,1.383-4.239,4.755,4.755,0,0,1,3.914-1.806,4.163,4.163,0,0,1,3.664,1.806,6.106,6.106,0,0,1,.987,3.542Zm-2.372-.649a3.4,3.4,0,0,0-.483-1.924A2.168,2.168,0,0,0,88.3,6.87a2.353,2.353,0,0,0-1.98,1.02,3.75,3.75,0,0,0-.736,1.946Z" transform="translate(-0.129 -0.801)" fill="#fff"/>
        </g>
        <g id="Group-3" data-name="Group" transform="translate(35.588 0.181)">
          <path id="Shape-3" data-name="Shape" d="M7,8.364h-1.3l-.713-2.2H2.5l-.68,2.2H.554L3.011.889H4.528ZM4.767,5.247,4.122,3.3c-.068-.2-.193-.665-.385-1.408H3.713c-.079.321-.193.787-.363,1.408L2.717,5.247Zm8.375-2.273-2.084,5.39H9.869L7.853,2.974H9.167l.94,2.85c.159.477.294.931.4,1.363h.034c.091-.387.226-.842.4-1.363l.929-2.85Zm4.436,5.39-.091-.621h-.034a1.891,1.891,0,0,1-1.608.743A1.587,1.587,0,0,1,14.158,6.9c0-1.33,1.177-2.018,3.216-2.018v-.1c0-.71-.385-1.065-1.143-1.065a2.609,2.609,0,0,0-1.437.4l-.249-.787a3.581,3.581,0,0,1,1.891-.466A1.944,1.944,0,0,1,18.6,5.093V7.078a7.843,7.843,0,0,0,.079,1.287Zm-.17-2.684c-1.359,0-2.038.322-2.038,1.087a.771.771,0,0,0,.838.842,1.16,1.16,0,0,0,1.2-1.1Zm3.915-3.593A.716.716,0,1,1,21.346.656a.707.707,0,0,1,.747.71A.71.71,0,0,1,21.323,2.086Zm.635,6.278H20.735V2.974h1.223Zm3.4,0H24.13V.5h1.223Zm5.2,0-.091-.621h-.034a1.891,1.891,0,0,1-1.608.743A1.587,1.587,0,0,1,27.13,6.9c0-1.33,1.177-2.018,3.216-2.018v-.1c0-.71-.385-1.065-1.143-1.065a2.609,2.609,0,0,0-1.437.4l-.25-.789a3.58,3.58,0,0,1,1.891-.466,1.944,1.944,0,0,1,2.163,2.23V7.077a8.135,8.135,0,0,0,.078,1.287h-1.1Zm-.17-2.684c-1.359,0-2.038.322-2.038,1.087a.771.771,0,0,0,.838.842,1.16,1.16,0,0,0,1.2-1.1V5.679Zm6.144,2.807a1.876,1.876,0,0,1-1.73-.954h-.024l-.07.832H33.657c.034-.432.046-.921.046-1.453V.5h1.224V3.763h.023a1.9,1.9,0,0,1,1.755-.9c1.325,0,2.254,1.11,2.254,2.728a2.611,2.611,0,0,1-2.435,2.894Zm-.249-4.681a1.391,1.391,0,0,0-1.348,1.431v.943a1.333,1.333,0,0,0,1.327,1.353c.916,0,1.461-.731,1.461-1.9,0-1.087-.568-1.831-1.44-1.831Zm5.714,4.559H40.767V.5h1.222Zm6.657-2.407H44.975a1.566,1.566,0,0,0,1.733,1.6A4.205,4.205,0,0,0,48.19,7.3l.19.832a4.672,4.672,0,0,1-1.845.333A2.528,2.528,0,0,1,43.8,5.747a2.653,2.653,0,0,1,2.6-2.895,2.283,2.283,0,0,1,2.288,2.562,2.215,2.215,0,0,1-.041.543ZM47.524,5.1c0-.832-.431-1.419-1.212-1.419A1.436,1.436,0,0,0,44.975,5.1Zm8.533,3.383a2.589,2.589,0,0,1-2.65-2.772,2.65,2.65,0,0,1,2.742-2.85A2.569,2.569,0,0,1,58.8,5.626,2.666,2.666,0,0,1,56.057,8.486ZM56.1,3.739c-.883,0-1.449.809-1.449,1.941,0,1.11.578,1.919,1.437,1.919s1.436-.865,1.436-1.942c0-1.1-.565-1.918-1.425-1.918Zm9.269,4.625H64.151V5.269c0-.953-.373-1.431-1.11-1.431a1.255,1.255,0,0,0-1.224,1.32V8.364H60.6V4.515c0-.477-.013-.987-.046-1.542h1.076l.057.832h.034a1.983,1.983,0,0,1,1.743-.943c1.154,0,1.912.865,1.912,2.273V8.364Zm8-4.491H72.028V6.49q0,1,.712,1a2.468,2.468,0,0,0,.544-.056l.034.91a2.776,2.776,0,0,1-.95.134c-.964,0-1.539-.521-1.539-1.886V3.873h-.8v-.9h.8V1.987l1.2-.355V2.973h1.345Zm6.476,4.491H78.625V5.292c0-.965-.373-1.453-1.11-1.453a1.185,1.185,0,0,0-1.222,1.275V8.364H75.07V.5h1.224V3.739h.023a1.862,1.862,0,0,1,1.653-.877c1.166,0,1.879.887,1.879,2.3V8.364ZM86.1,5.957h-3.67a1.564,1.564,0,0,0,1.732,1.6A4.2,4.2,0,0,0,85.642,7.3l.191.832a4.678,4.678,0,0,1-1.846.333,2.528,2.528,0,0,1-2.741-2.716,2.653,2.653,0,0,1,2.6-2.895,2.283,2.283,0,0,1,2.288,2.562,2.283,2.283,0,0,1-.041.543ZM84.976,5.1c0-.832-.429-1.419-1.211-1.419A1.434,1.434,0,0,0,82.428,5.1Z" transform="translate(-0.554 -0.501)" fill="#fff"/>
        </g>
      </g>
    </g>
  </g>
</svg>
