<svg xmlns="http://www.w3.org/2000/svg" width="29.4" height="51.038" viewBox="0 0 29.4 51.038">
  <g id="_9mobile" data-name="9mobile" transform="translate(-218.74 -15.43)">
    <path id="Path_1092" data-name="Path 1092" d="M224.381,61.358a2.127,2.127,0,0,1,1.47.426,1.717,1.717,0,0,1,.465,1.325v3.212H225.31V63.245q0-1.016-1.139-1.016a1.73,1.73,0,0,0-.929.261,2.5,2.5,0,0,1,.067.619v3.212H222.3V63.245q0-1.016-1.139-1.016a2.907,2.907,0,0,0-1.015.184v3.908h-1.005v-4.46a4.43,4.43,0,0,1,1.048-.366,5.367,5.367,0,0,1,1.182-.14,2.217,2.217,0,0,1,1.4.366A3.719,3.719,0,0,1,224.381,61.358Zm5.379,5.11a2.18,2.18,0,0,1-1.728-.658,2.819,2.819,0,0,1-.579-1.915q0-2.545,2.3-2.544A2.218,2.218,0,0,1,231.5,62a3.332,3.332,0,0,1-.019,3.8A2.193,2.193,0,0,1,229.761,66.468Zm-.01-.861q1.322,0,1.321-1.712a2.122,2.122,0,0,0-.314-1.272,1.173,1.173,0,0,0-1.006-.421,1.135,1.135,0,0,0-1,.431,2.776,2.776,0,0,0,.009,2.535,1.12,1.12,0,0,0,.989.438Zm5.686-4.247a2.025,2.025,0,0,1,1.627.648,2.746,2.746,0,0,1,.557,1.836,2.615,2.615,0,0,1-.665,2.027,2.452,2.452,0,0,1-1.691.6q-2.059,0-2.059-1.1V59.52h1v2.14a2.988,2.988,0,0,1,.627-.218,2.7,2.7,0,0,1,.608-.084Zm-.249,4.228a1.239,1.239,0,0,0,1.1-.455,2.17,2.17,0,0,0,.314-1.248,1.99,1.99,0,0,0-.33-1.238,1.164,1.164,0,0,0-.981-.425,2.335,2.335,0,0,0-.56.072,1.969,1.969,0,0,0-.523.209v2.613q0,.47.983.47Zm3.57-5.814h1.072v.919h-1.072Zm.029,1.722h1.005l.009,4.828h-1.015Zm2.43,4.828v-6.7h1v6.694Zm4.364-4.976a1.878,1.878,0,0,1,1.642.732,3.435,3.435,0,0,1,.512,2.046h-3.372a1.65,1.65,0,0,0,.418,1.089,1.409,1.409,0,0,0,1.048.372,3.218,3.218,0,0,0,1.551-.4v.948a4.175,4.175,0,0,1-1.711.332,2.21,2.21,0,0,1-1.7-.663,2.655,2.655,0,0,1-.617-1.881,2.8,2.8,0,0,1,.584-1.91A2.091,2.091,0,0,1,245.58,61.346Zm-.029.836a1.11,1.11,0,0,0-.794.271,1.517,1.517,0,0,0-.374.919h2.327a1.5,1.5,0,0,0-.345-.9A1.089,1.089,0,0,0,245.551,62.183Zm-9.6-39.8a11.588,11.588,0,0,0-2.561-.412,8.048,8.048,0,1,0,7.848,6.125l6.425-1.73a14.587,14.587,0,0,1-1.915,11.719L235.106,57.808H225.25l7-12.909c.038-.071-.074-.228-.168-.236a14.649,14.649,0,1,1,5.735-28.571Z" fill="#006e53" fill-rule="evenodd"/>
    <circle id="Ellipse_68" data-name="Ellipse 68" cx="4.429" cy="4.429" r="4.429" transform="translate(228.909 25.594)" fill="#d6e806"/>
    <path id="Path_1093" data-name="Path 1093" d="M569.589,56.166a8.031,8.031,0,0,0-4.129-4.329m6.948,3.121a11.419,11.419,0,0,0-5.738-6.04m8.456,5.134a14.28,14.28,0,0,0-7.55-7.852" transform="translate(-328.599 -29.162)" fill="none" stroke="#d6e806" stroke-linecap="round" stroke-width="1"/>
  </g>
</svg>
