<svg id="Layer_1" xmlns="http://www.w3.org/2000/svg" width="32.951" height="58.298" viewBox="0 0 32.951 58.298">
  <path id="Path_910" data-name="Path 910" d="M151.684,20H121.267A1.271,1.271,0,0,0,120,21.267v41.24a.59.59,0,0,0,.583.583h31.785a.59.59,0,0,0,.583-.583V21.267A1.271,1.271,0,0,0,151.684,20Zm-11.406,6.337h-7.6a1.267,1.267,0,0,1,0-2.535h7.6a1.267,1.267,0,0,1,0,2.535Z" transform="translate(-120 -20)" fill="#3ddda3"/>
  <path id="Path_911" data-name="Path 911" d="M120.583,380a.59.59,0,0,0-.583.583v10.823a1.271,1.271,0,0,0,1.267,1.267h30.416a1.271,1.271,0,0,0,1.267-1.267V380.583a.59.59,0,0,0-.583-.583Zm15.893,7.6a2.535,2.535,0,1,1,2.535-2.535A2.526,2.526,0,0,1,136.476,387.6Z" transform="translate(-120 -334.375)" fill="#3ddda3"/>
</svg>
