<svg xmlns="http://www.w3.org/2000/svg" width="48.126" height="48.481" viewBox="0 0 48.126 48.481">
  <g id="Group_273" data-name="Group 273" transform="translate(-879.464 -589.26)">
    <g id="Group_272" data-name="Group 272">
      <path id="bharti-airtel-limited" d="M26.667.041a2.664,2.664,0,0,1-.485.06,16.179,16.179,0,0,0-3.734.937c-.073.033-.279.12-.465.193a17.955,17.955,0,0,0-1.967.944,1.245,1.245,0,0,1-.346.159c-.1.027-.179.073-.179.1s-.053.066-.113.093a1.755,1.755,0,0,0-.319.173,2.851,2.851,0,0,1-.352.2,1.925,1.925,0,0,0-.372.233,1.156,1.156,0,0,1-.259.166,23.778,23.778,0,0,0-2.9,2.1,12.28,12.28,0,0,0-1.4,1.5.662.662,0,0,1-.14.2,12.023,12.023,0,0,0-.97,1.522c-.073.166-.219.458-.312.658a4.527,4.527,0,0,0-.425,2.233,2.383,2.383,0,0,0,.791,1.834,3.053,3.053,0,0,0,2.219.9,5.249,5.249,0,0,0,1.861-.213c.219-.06.512-.133.651-.173a1.631,1.631,0,0,0,.365-.126c.153-.08,1.01-.465,1.05-.465a26.118,26.118,0,0,0,2.817-1.721c.857-.571,1.608-1.07,1.674-1.1s.465-.279.9-.538.963-.558,1.183-.671.532-.279.7-.365.478-.226.7-.306.492-.2.6-.246.272-.12.365-.159A5.616,5.616,0,0,1,29.212,7.9a2.348,2.348,0,0,1,2.545,1.608,3.326,3.326,0,0,1,.126,1.3,4.976,4.976,0,0,1-.346,2.126c-.053.126-.126.306-.166.4a15.266,15.266,0,0,1-1.8,2.977,25.638,25.638,0,0,1-3.4,3.522c-.365.306-.771.638-.9.744a11.375,11.375,0,0,1-.963.7c-.146.093-.385.253-.532.359a17.8,17.8,0,0,1-2.126,1.13L21.105,23a1.006,1.006,0,0,1-.339.093,1.424,1.424,0,0,0-.339.073.635.635,0,0,1-.87-.585c0-.545.259-.89,1.894-2.512,1.768-1.754,1.96-2.013,1.96-2.678a1.61,1.61,0,0,0-1.057-1.522,1.657,1.657,0,0,0-1-.186,2.546,2.546,0,0,0-1.5.379c-.106.066-.272.153-.365.2a1.145,1.145,0,0,0-.2.12c-.02.02-.153.12-.3.233a8.882,8.882,0,0,0-1.322,1.356,9.253,9.253,0,0,0-.844,1.4,6.782,6.782,0,0,0-.658,2.565,2.836,2.836,0,0,0,1.894,2.9,8.673,8.673,0,0,0,2.239.007,12.641,12.641,0,0,0,1.807-.558.277.277,0,0,1,.159-.06,20.365,20.365,0,0,0,2.824-1.442c.153-.1.326-.213.392-.253s.372-.226.7-.425.6-.385.618-.405a5.767,5.767,0,0,1,.5-.365l.664-.458c.113-.08.425-.319.7-.538a26.54,26.54,0,0,0,4.146-3.987c.146-.179.279-.346.3-.365.053-.04.505-.691.817-1.183a8.645,8.645,0,0,0,.472-.811c.126-.239.3-.565.385-.731s.272-.6.419-.963.279-.724.306-.8a15.3,15.3,0,0,0,.6-2.558,9.841,9.841,0,0,0-.239-3.489,5.7,5.7,0,0,0-.385-.963,7.275,7.275,0,0,0-2.359-2.857,3.482,3.482,0,0,1-.372-.292A9.337,9.337,0,0,0,30.581.379,10.922,10.922,0,0,0,29.325.1a14.326,14.326,0,0,0-2.658-.06ZM45.93,32.9c-.02.013-.326.073-.691.133s-.963.153-1.329.219l-.664.113v6.113c0,6.638-.013,6.359.379,7.19a2.42,2.42,0,0,0,.6.791,3.526,3.526,0,0,0,2.764.851c1.2,0,1.15.047,1.123-1.057l-.02-.8-.512-.047c-.91-.08-1.349-.445-1.449-1.2-.027-.226-.047-3.07-.04-6.313C46.1,33.278,46.09,32.74,45.93,32.9Zm-18.4.133a8.663,8.663,0,0,0-2.027.385c-.047.053-.053,2.173-.033,6.226.033,5.661.047,6.173.153,6.445a2.871,2.871,0,0,0,.724,1.209,3.928,3.928,0,0,0,3.05.983c.811,0,.924-.013.977-.12a6.458,6.458,0,0,0,.047-1.548c-.04-.166-.066-.173-.565-.213a1.377,1.377,0,0,1-1.263-.711l-.166-.3-.02-3.442a26.262,26.262,0,0,1,.06-3.542c.06-.073.286-.093,1-.093,1.1,0,1,.106.977-1.163l-.02-.864-.93-.033a6.445,6.445,0,0,1-1.01-.086,5.2,5.2,0,0,1-.086-1.648V32.932l-.146.007c-.086.007-.405.047-.718.093Zm-23.024,3a10.635,10.635,0,0,0-2.06.492,2.592,2.592,0,0,1-.3.106,5.5,5.5,0,0,0-1.263.631,2.172,2.172,0,0,0,.126.346,8.729,8.729,0,0,0,.638,1.309.6.6,0,0,0,.153-.06,7.193,7.193,0,0,1,1.076-.439c.2-.06.439-.14.532-.173a5.285,5.285,0,0,1,1.821-.126c.9.146,1.236.565,1.289,1.635.027.591.027.6-.126.645a11.974,11.974,0,0,1-1.356.047,5.6,5.6,0,0,0-3.09.591A3.6,3.6,0,0,0,.108,43.3a4.511,4.511,0,0,0,.04,2.126,4.189,4.189,0,0,0,4,2.97A7.361,7.361,0,0,0,8.992,47l.432-.352.02-3.515c.02-4.073.013-4.213-.478-5.21A3.781,3.781,0,0,0,7.55,36.554c-.213-.1-.445-.2-.518-.233A6.739,6.739,0,0,0,4.507,36.029Zm1.96,6.406a12.728,12.728,0,0,1,.066,1.8c0,1.887.027,1.768-.465,2.027a2.244,2.244,0,0,1-1.037.126h-.8L3.9,46.162a1.984,1.984,0,0,1-.465-.432A2.472,2.472,0,0,1,3.49,43.1a2.729,2.729,0,0,1,.844-.6.305.305,0,0,0,.179-.06c.093-.1.4-.126,1.176-.113.558.007.731.027.777.106Zm14.619-6.246a7.374,7.374,0,0,0-3.442,1.847l-.279.253V48.1c0,.106.1.113,1.449.1l1.442-.02.02-4.631.013-4.625.253-.2a2.225,2.225,0,0,1,.831-.445,4.547,4.547,0,0,1,1.714-.166,2.462,2.462,0,0,0,.558.02,1.472,1.472,0,0,0,.272-.505c.1-.266.259-.611.339-.771.219-.419.2-.525-.093-.591-.14-.033-.392-.093-.571-.133a8.194,8.194,0,0,0-2.505.053Zm14.452.013a1.415,1.415,0,0,0-.458.126.277.277,0,0,1-.159.06,2.275,2.275,0,0,0-.525.213,5.035,5.035,0,0,0-1.628,1.515,6.8,6.8,0,0,0-.684,1.429,2.514,2.514,0,0,1-.1.332c-.027.073-.106.359-.173.631A12.941,12.941,0,0,0,31.8,44.2a6.639,6.639,0,0,0,.585,1.562.068.068,0,0,1,.06.073A4.932,4.932,0,0,0,33.8,47.538a4.777,4.777,0,0,0,1.209.625,8.025,8.025,0,0,0,1.867.319,8.354,8.354,0,0,0,3.209-.764,2.243,2.243,0,0,1,.405-.2,2.092,2.092,0,0,0,.691-.425,5.789,5.789,0,0,0-.784-1.6.63.63,0,0,0-.259.133.594.594,0,0,1-.259.133.488.488,0,0,0-.219.093,6.342,6.342,0,0,1-.764.306,3.5,3.5,0,0,1-1.562.226c-.824,0-.963-.013-1.229-.14-.93-.445-1.462-1.568-1.462-3.083a4.336,4.336,0,0,1,.02-.6c.007-.013,1.482-.033,3.269-.053l3.256-.033-.02-.664a9.4,9.4,0,0,0-.684-3.455c-.027-.04-.12-.206-.206-.372a3.5,3.5,0,0,0-2.013-1.621,6.647,6.647,0,0,0-2.724-.153Zm1.429,2.113c.279.073.864.545.864.691a.881.881,0,0,0,.1.259,2.842,2.842,0,0,1,.166,1.409c-.066.086-.326.1-1.668.1H34.84l-.04-.166a2.756,2.756,0,0,1,.412-1.6,1.688,1.688,0,0,1,.937-.7,1.664,1.664,0,0,1,.465-.086c.04.013.2.06.352.1Zm-24.32-6.791a1.854,1.854,0,0,0-.877.711c-.213.326-.219.352-.219,1.03v.7l.253.346a1.656,1.656,0,0,0,.937.7,1.854,1.854,0,0,0,1.694-.252,1.977,1.977,0,0,0,.525-2.459,1.542,1.542,0,0,0-.684-.691A2.167,2.167,0,0,0,12.646,31.524Zm1.628,4.8a5.2,5.2,0,0,1-.664.126c-.253.033-.718.1-1.03.146a3.522,3.522,0,0,0-.618.12c-.06.053-.066,11.343-.013,11.442a8.359,8.359,0,0,0,1.4.06c1.356,0,1.362,0,1.4-.153.02-.08.027-2.764.02-5.96-.02-5.761-.02-5.814-.153-5.827a1.1,1.1,0,0,0-.332.047Z" transform="translate(879.465 589.26)" fill="red"/>
    </g>
  </g>
</svg>
