<svg id="Layer_1" xmlns="http://www.w3.org/2000/svg" width="42.294" height="46.746" viewBox="0 0 42.294 46.746">
  <path id="Path_921" data-name="Path 921" d="M101.181,40H61.113a1.113,1.113,0,1,0,0,2.226h2.226V85.633a1.116,1.116,0,0,0,1.113,1.113h33.39a1.116,1.116,0,0,0,1.113-1.113V42.226h2.226a1.113,1.113,0,1,0,0-2.226ZM84.486,66.712H71.13a1.113,1.113,0,1,1,0-2.226H84.486a1.113,1.113,0,0,1,0,2.226Zm2.226-8.9H71.13a1.113,1.113,0,0,1,0-2.226H86.712a1.113,1.113,0,1,1,0,2.226Zm4.452-8.9H71.13a1.113,1.113,0,1,1,0-2.226H91.164a1.113,1.113,0,0,1,0,2.226Z" transform="translate(-60 -40)" fill="#3ddda3"/>
</svg>
