<svg xmlns="http://www.w3.org/2000/svg" width="47" height="47" viewBox="0 0 47 47">
  <g id="Group_94" data-name="Group 94" transform="translate(-26.254 -376.253)">
    <rect id="Rectangle_278" data-name="Rectangle 278" width="47" height="47" rx="5" transform="translate(26.254 376.253)" fill="#3ddda3"/>
    <g id="Layer_1" transform="translate(36.766 390.662)">
      <path id="Path_1060" data-name="Path 1060" d="M50,126.234a1.946,1.946,0,0,0,1.948,1.948H74.027a1.946,1.946,0,0,0,1.948-1.948v-9.8a.593.593,0,0,0-.591-.591H50.591a.593.593,0,0,0-.591.591Zm18.656-5.195H72.91a.473.473,0,0,1,.474.474v2.955a.473.473,0,0,1-.474.474H68.656a.473.473,0,0,1-.474-.474v-2.955A.468.468,0,0,1,68.656,121.039ZM74.027,110H51.948A1.946,1.946,0,0,0,50,111.948v.708a.593.593,0,0,0,.591.591H75.384a.593.593,0,0,0,.591-.591v-.708A1.946,1.946,0,0,0,74.027,110Z" transform="translate(-50 -110)" fill="#fff"/>
    </g>
  </g>
</svg>
