<svg xmlns="http://www.w3.org/2000/svg" width="62.008" height="62.008" viewBox="0 0 62.008 62.008">
  <g id="donate" transform="translate(0 0.001)">
    <g id="Group_257" data-name="Group 257" transform="translate(0 -0.001)">
      <g id="Group_256" data-name="Group 256" transform="translate(0 0)">
        <path id="Path_1110" data-name="Path 1110" d="M1.825,228.264c1.542,1.063,5.592,3.525,9.957,3.539a4.865,4.865,0,0,0-.507,2.135,4.922,4.922,0,0,0,4.228,4.856v1.479a1.409,1.409,0,0,0,2.819,0v-1.408h2.818a1.408,1.408,0,1,0,0-2.816H16.207a2.112,2.112,0,1,1,0-4.224h1.409a4.908,4.908,0,0,0,2.457-9.171c-.944-3.371-4.22-6.609-7.109-8.592A16.886,16.886,0,1,1,0,230.479a16.626,16.626,0,0,1,.323-3.172C.816,227.6,1.316,227.913,1.825,228.264Z" transform="translate(28.185 -185.366)" fill="#3ddda3"/>
        <path id="Path_1111" data-name="Path 1111" d="M126,.093A1.407,1.407,0,0,1,127.37.3c.05.04,5.249,4.081,9.419,5.4.991.312,2.386.7,3.988,1.149,7.649,2.137,14.156,4.081,16.314,6.237.49.488,1.982,1.977,3.669,10.6a1.4,1.4,0,0,1-.3,1.176,1.343,1.343,0,0,1-1.1.5l-.44-.023a19.571,19.571,0,0,0-8,1.7,1.435,1.435,0,0,1-1.1.018,1.4,1.4,0,0,1-.776-.782L148,23.7c-.768-.219-2-.588-2.97-.96a10.949,10.949,0,0,1-1,.474,7.983,7.983,0,0,0-1.715.925c1.492,2.09,5.458,4.236,8.67,5.533,2.576,1.039,7.756,5.138,8.483,8.711a3.626,3.626,0,0,1-.969,3.444,6.441,6.441,0,0,1-4.679,1.8c-3.586,0-7.063-2.128-8.392-3.044-3.127-2.156-6.823-3.755-9.2-3.982-.394-.037-.768-.054-1.137-.071-2.034-.095-4.14-.192-8.012-3.007a17.539,17.539,0,0,1-4.547-5.571c-1.74-2.871-3.542-5.838-8.015-8.428a1.407,1.407,0,0,1-.7-1.218C113.817,4.906,125.876.14,126,.093Z" transform="translate(-113.817 0)" fill="#3ddda3"/>
      </g>
    </g>
  </g>
</svg>
