<svg xmlns="http://www.w3.org/2000/svg" width="39" height="39" viewBox="0 0 39 39">
  <g id="Group_265" data-name="Group 265" transform="translate(-967 -3394.999)">
    <rect id="Rectangle_278" data-name="Rectangle 278" width="39" height="39" rx="5" transform="translate(967 3394.999)" fill="#3ddda3"/>
    <path id="Paper_Download" data-name="Paper Download" d="M14.75,21.032,18.444,17.3a.976.976,0,0,0-.013-1.378.949.949,0,0,0-1.351,0L15.033,18V11.737a.958.958,0,0,0-.953-.975.969.969,0,0,0-.965.975V18l-2.046-2.08a.949.949,0,0,0-1.351,0,.988.988,0,0,0,0,1.378L13.4,21.032a1,1,0,0,0,.309.208.915.915,0,0,0,.373.078.856.856,0,0,0,.36-.078A1,1,0,0,0,14.75,21.032Zm9.327-9.9c.3,0,.632-.007.931-.007a.583.583,0,0,1,.592.585V22.163A5.819,5.819,0,0,1,19.808,28H9.575A6.1,6.1,0,0,1,3.5,21.877V7.863A5.836,5.836,0,0,1,9.3,2h6.873a.6.6,0,0,1,.592.6V6.784a4.345,4.345,0,0,0,4.3,4.342c.544,0,1.031,0,1.456.008.329,0,.621.005.874.005C23.582,11.139,23.82,11.136,24.077,11.133Zm.359-1.9c-1.057,0-2.3,0-3.2-.009a2.623,2.623,0,0,1-2.6-2.622V3.178A.614.614,0,0,1,19.7,2.744l3.791,3.98,1.393,1.463A.62.62,0,0,1,24.436,9.236Z" transform="translate(971.95 3399)" fill="#fff" fill-rule="evenodd"/>
    <path id="Paper_Download-2" data-name="Paper Download" d="M14.75,21.032,18.444,17.3a.976.976,0,0,0-.013-1.378.949.949,0,0,0-1.351,0L15.033,18V11.737a.958.958,0,0,0-.953-.975.969.969,0,0,0-.965.975V18l-2.046-2.08a.949.949,0,0,0-1.351,0,.988.988,0,0,0,0,1.378L13.4,21.032a1,1,0,0,0,.309.208.915.915,0,0,0,.373.078.856.856,0,0,0,.36-.078A1,1,0,0,0,14.75,21.032Zm9.327-9.9c.3,0,.632-.007.931-.007a.583.583,0,0,1,.592.585V22.163A5.819,5.819,0,0,1,19.808,28H9.575A6.1,6.1,0,0,1,3.5,21.877V7.863A5.836,5.836,0,0,1,9.3,2h6.873a.6.6,0,0,1,.592.6V6.784a4.345,4.345,0,0,0,4.3,4.342c.544,0,1.031,0,1.456.008.329,0,.621.005.874.005C23.582,11.139,23.82,11.136,24.077,11.133Zm.359-1.9c-1.057,0-2.3,0-3.2-.009a2.623,2.623,0,0,1-2.6-2.622V3.178A.614.614,0,0,1,19.7,2.744l3.791,3.98,1.393,1.463A.62.62,0,0,1,24.436,9.236Z" transform="translate(972.95 3400)" fill="#071d49" fill-rule="evenodd"/>
  </g>
</svg>
