<svg xmlns="http://www.w3.org/2000/svg" xmlns:xlink="http://www.w3.org/1999/xlink" width="155" height="61" viewBox="0 0 155 61">
  <defs>
    <linearGradient id="linear-gradient" x1="0.61" y1="0.048" x2="0.262" y2="0.72" gradientUnits="objectBoundingBox">
      <stop offset="0" stop-color="#00a0ff"/>
      <stop offset="0.007" stop-color="#00a1ff"/>
      <stop offset="0.26" stop-color="#00beff"/>
      <stop offset="0.512" stop-color="#00d2ff"/>
      <stop offset="0.76" stop-color="#00dfff"/>
      <stop offset="1" stop-color="#00e3ff"/>
    </linearGradient>
    <linearGradient id="linear-gradient-2" x1="1.077" y1="0.494" x2="-1.307" y2="0.494" gradientUnits="objectBoundingBox">
      <stop offset="0" stop-color="#ffe000"/>
      <stop offset="0.409" stop-color="#ffbd00"/>
      <stop offset="0.775" stop-color="orange"/>
      <stop offset="1" stop-color="#ff9c00"/>
    </linearGradient>
    <linearGradient id="linear-gradient-3" x1="0.864" y1="0.306" x2="-0.499" y2="1.37" gradientUnits="objectBoundingBox">
      <stop offset="0" stop-color="#ff3a44"/>
      <stop offset="1" stop-color="#c31162"/>
    </linearGradient>
    <linearGradient id="linear-gradient-4" x1="-0.186" y1="-0.11" x2="0.423" y2="0.352" gradientUnits="objectBoundingBox">
      <stop offset="0" stop-color="#32a071"/>
      <stop offset="0.069" stop-color="#2da771"/>
      <stop offset="0.476" stop-color="#15cf74"/>
      <stop offset="0.801" stop-color="#06e775"/>
      <stop offset="1" stop-color="#00f076"/>
    </linearGradient>
  </defs>
  <g id="Group_269" data-name="Group 269" transform="translate(-332 -4088)">
    <g id="Path_1112" data-name="Path 1112" transform="translate(332 4088)" fill="rgba(7,29,73,0)">
      <path d="M 150 60.5 L 5 60.5 C 2.518699884414673 60.5 0.5 58.48130035400391 0.5 56 L 0.5 5 C 0.5 2.518699884414673 2.518699884414673 0.5 5 0.5 L 150 0.5 C 152.4812927246094 0.5 154.5 2.518699884414673 154.5 5 L 154.5 56 C 154.5 58.48130035400391 152.4812927246094 60.5 150 60.5 Z" stroke="none"/>
      <path d="M 5 1 C 2.794403076171875 1 1 2.794399261474609 1 5 L 1 56 C 1 58.20560073852539 2.794403076171875 60 5 60 L 150 60 C 152.2055969238281 60 154 58.20560073852539 154 56 L 154 5 C 154 2.794399261474609 152.2055969238281 1 150 1 L 5 1 M 5 0 L 150 0 C 152.7614135742188 0 155 2.238578796386719 155 5 L 155 56 C 155 58.76142120361328 152.7614135742188 61 150 61 L 5 61 C 2.238555908203125 61 0 58.76142120361328 0 56 L 0 5 C 0 2.238578796386719 2.238555908203125 0 5 0 Z" stroke="none" fill="#3ddda3"/>
    </g>
    <g id="Page-1" transform="translate(250 4037)">
      <g id="Group" transform="translate(97 66)">
        <g id="google-2">
          <path id="Shape" d="M406.475,69.635a3.038,3.038,0,0,1-.755,2.2,3.339,3.339,0,0,1-4.748,0,3.509,3.509,0,0,1,0-4.847A3.141,3.141,0,0,1,403.345,66a2.827,2.827,0,0,1,1.295.33,2.359,2.359,0,0,1,.971.771l-.54.551a2,2,0,0,0-1.727-.771,2.128,2.128,0,0,0-1.727.771,2.7,2.7,0,0,0,0,3.745,2.752,2.752,0,0,0,1.727.771,2.343,2.343,0,0,0,1.835-.771,1.843,1.843,0,0,0,.54-1.322h-2.374v-.881h3.13Zm4.964-2.754h-2.914v2.093h2.7v.771h-2.7v2.093h2.914v.881h-3.777V66.11h3.777ZM415,72.719h-.863V66.881H412.3V66.11h4.533v.771H415Zm4.964,0V66.11h.863v6.609Zm4.533,0h-.863V66.881H421.8V66.11h4.425v.771h-1.835v5.838Zm10.252-.881a3.339,3.339,0,0,1-4.748,0,3.509,3.509,0,0,1,0-4.847,3.339,3.339,0,0,1,4.748,0,3.509,3.509,0,0,1,0,4.847Zm-4.1-.551a2.523,2.523,0,0,0,1.727.771,2.128,2.128,0,0,0,1.727-.771,2.685,2.685,0,0,0,.755-1.873,2.292,2.292,0,0,0-.755-1.873,2.523,2.523,0,0,0-1.727-.771,2.128,2.128,0,0,0-1.727.771,2.685,2.685,0,0,0-.755,1.873A2.292,2.292,0,0,0,430.648,71.287Zm6.259,1.432V66.11h.971l3.13,5.177V66.11h.863v6.609h-.863l-3.345-5.4v5.4Z" transform="translate(-366.077 -66)" fill="#fff"/>
          <path id="Shape-2" data-name="Shape" d="M426.121,169.075a4.54,4.54,0,0,0-4.638,4.643,4.606,4.606,0,0,0,4.638,4.643,4.54,4.54,0,0,0,4.638-4.643A4.477,4.477,0,0,0,426.121,169.075Zm0,7.343a2.817,2.817,0,0,1,0-5.615,2.614,2.614,0,0,1,2.589,2.808A2.679,2.679,0,0,1,426.121,176.418Zm-10.03-7.343a4.54,4.54,0,0,0-4.638,4.643,4.606,4.606,0,0,0,4.638,4.643,4.54,4.54,0,0,0,4.638-4.643A4.477,4.477,0,0,0,416.09,169.075Zm0,7.343a2.817,2.817,0,0,1,0-5.615,2.614,2.614,0,0,1,2.589,2.808A2.679,2.679,0,0,1,416.09,176.418Zm-11.972-5.939v1.944h4.638a4.085,4.085,0,0,1-1.079,2.484,4.771,4.771,0,0,1-3.559,1.4,5.025,5.025,0,0,1-5.069-5.183,5.091,5.091,0,0,1,5.069-5.183,5.344,5.344,0,0,1,3.559,1.4l1.4-1.4A6.907,6.907,0,0,0,404.226,164a7.127,7.127,0,1,0,0,14.254,6.2,6.2,0,0,0,4.961-2.052,6.5,6.5,0,0,0,1.726-4.535,4.054,4.054,0,0,0-.108-1.188Zm48.966,1.512a4.192,4.192,0,0,0-3.883-2.916,4.347,4.347,0,0,0-4.314,4.643,4.516,4.516,0,0,0,4.53,4.643,4.423,4.423,0,0,0,3.775-2.052l-1.51-1.08a2.628,2.628,0,0,1-2.265,1.3,2.34,2.34,0,0,1-2.265-1.4l6.148-2.592Zm-6.256,1.512a2.622,2.622,0,0,1,2.373-2.7,1.907,1.907,0,0,1,1.726.972Zm-5.069,4.427h2.049v-13.5h-2.049Zm-3.236-7.883a3.549,3.549,0,0,0-2.481-1.08,4.637,4.637,0,0,0-4.422,4.643,4.469,4.469,0,0,0,4.422,4.535,3.1,3.1,0,0,0,2.373-1.08h.108v.648a2.452,2.452,0,0,1-4.746,1.08l-1.726.756a4.45,4.45,0,0,0,4.1,2.7c2.373,0,4.314-1.4,4.314-4.751v-8.207h-1.941Zm-2.373,6.371a2.817,2.817,0,0,1,0-5.615,2.829,2.829,0,0,1,0,5.615Zm26.316-11.986h-4.853v13.5h2.049v-5.075h2.8a4.216,4.216,0,1,0,0-8.423Zm.108,6.479h-2.912v-4.643h2.912a2.37,2.37,0,0,1,2.373,2.268A2.47,2.47,0,0,1,462.575,170.911Zm12.4-1.944a3.625,3.625,0,0,0-3.559,2.052l1.834.756a1.9,1.9,0,0,1,1.834-.972,2.027,2.027,0,0,1,2.157,1.728v.108a4.274,4.274,0,0,0-2.049-.54c-1.941,0-3.883,1.08-3.883,3.023a3.161,3.161,0,0,0,3.343,3.023,3.034,3.034,0,0,0,2.589-1.3h.108v1.08h1.941v-5.183a4.083,4.083,0,0,0-4.314-3.779Zm-.216,7.451c-.647,0-1.618-.324-1.618-1.188,0-1.08,1.186-1.4,2.157-1.4a4.167,4.167,0,0,1,1.833.432,2.513,2.513,0,0,1-2.373,2.16Zm11.325-7.127-2.265,5.831h-.108l-2.373-5.831h-2.157l3.559,8.207-2.049,4.535h2.049l5.5-12.742Zm-18.12,8.639h2.049v-13.5h-2.049Z" transform="translate(-363.413 -153.028)" fill="#fff"/>
          <path id="Path" d="M97.431,73A2.114,2.114,0,0,0,97,74.511V98.363a2.138,2.138,0,0,0,.538,1.511l.108.108L110.995,86.6v-.216Z" transform="translate(-97 -72.216)" fill="url(#linear-gradient)"/>
          <path id="Path-2" data-name="Path" d="M224.477,162.068,220,157.694v-.32L224.477,153l.109.107,5.351,2.987c1.529.854,1.529,2.24,0,3.094Z" transform="translate(-206.229 -143.26)" fill="url(#linear-gradient-2)"/>
          <path id="Path-3" data-name="Path" d="M118.025,196.56,113.492,192,100,205.573c.54.543,1.3.543,2.267.109Z" transform="translate(-99.664 -177.893)" fill="url(#linear-gradient-3)"/>
          <path id="Path-4" data-name="Path" d="M118.025,78.262l-15.758-8.909A1.757,1.757,0,0,0,100,69.46l13.492,13.31Z" transform="translate(-99.664 -68.664)" fill="url(#linear-gradient-4)"/>
          <path id="Path-5" data-name="Path" d="M118.8,234l-15.549,8.72a1.765,1.765,0,0,1-2.145,0l-.107.106.107.106a1.765,1.765,0,0,0,2.145,0Z" transform="translate(-100.552 -215.191)" opacity="0.2"/>
          <path id="Shape-3" data-name="Shape" d="M97.432,205.438A2.152,2.152,0,0,1,97,203.908v.109a2.175,2.175,0,0,0,.54,1.529v-.109Zm23.341-12.017-5.4,3.059.108.109,5.3-3.059A1.816,1.816,0,0,0,121.854,192c0,.546-.432.983-1.081,1.42Z" transform="translate(-97 -177.893)" opacity="0.12"/>
          <path id="Path-6" data-name="Path" d="M99.7,69.485l21.072,11.893c.648.429,1.081.857,1.081,1.393a1.781,1.781,0,0,0-1.081-1.5L99.7,69.378c-1.513-.857-2.7-.214-2.7,1.5v.107C97,69.378,98.189,68.628,99.7,69.485Z" transform="translate(-97 -68.664)" fill="#fff" opacity="0.25"/>
        </g>
      </g>
    </g>
  </g>
</svg>
