<svg xmlns="http://www.w3.org/2000/svg" width="37" height="37" viewBox="0 0 37 37">
  <g id="Group_136" data-name="Group 136" transform="translate(-0.42 -0.42)">
    <rect id="Rectangle_291" data-name="Rectangle 291" width="37" height="37" rx="18.5" transform="translate(0.42 0.42)" fill="#3ddda3"/>
    <g id="Group_127" data-name="Group 127" transform="translate(11.344 10.621)">
      <g id="Layer_1" transform="translate(0 0)">
        <path id="Path_921" data-name="Path 921" d="M73.376,40H60.362a.362.362,0,0,0,0,.723h.723v14.1a.363.363,0,0,0,.362.362H72.291a.363.363,0,0,0,.362-.362v-14.1h.723a.362.362,0,0,0,0-.723Zm-5.423,8.676H63.615a.362.362,0,1,1,0-.723h4.338a.362.362,0,0,1,0,.723Zm.723-2.892H63.615a.362.362,0,1,1,0-.723h5.061a.362.362,0,1,1,0,.723Zm1.446-2.892H63.615a.362.362,0,1,1,0-.723h6.507a.362.362,0,1,1,0,.723Z" transform="translate(-60 -40)" fill="#fff"/>
      </g>
      <path id="Path_921-2" data-name="Path 921" d="M73.376,40H60.362a.362.362,0,0,0,0,.723h.723v14.1a.363.363,0,0,0,.362.362H72.291a.363.363,0,0,0,.362-.362v-14.1h.723a.362.362,0,0,0,0-.723Zm-5.423,8.676H63.615a.362.362,0,1,1,0-.723h4.338a.362.362,0,0,1,0,.723Zm.723-2.892H63.615a.362.362,0,1,1,0-.723h5.061a.362.362,0,1,1,0,.723Zm1.446-2.892H63.615a.362.362,0,1,1,0-.723h6.507a.362.362,0,1,1,0,.723Z" transform="translate(-59.277 -39.277)" fill="#071d49"/>
    </g>
  </g>
</svg>
