<svg id="Layer_1" data-name="Layer 1" xmlns="http://www.w3.org/2000/svg" width="155.97" height="44.654" viewBox="0 0 155.97 44.654">
  <path id="Path_738" data-name="Path 738" d="M10.467,162.1h0A6.071,6.071,0,0,1,7.68,160.47,6.091,6.091,0,0,0,10.467,162.1Z" transform="translate(-5.943 -124.172)" fill="#1a1a1a"/>
  <path id="Path_739" data-name="Path 739" d="M33.882,3.849v9.482l-17.4-4.66a2.714,2.714,0,0,1-1.249-.751,2.683,2.683,0,0,1,0-3.685l.511-.538L29.036.137a3.845,3.845,0,0,1,4.845,3.712Z" transform="translate(-11.221 -0.005)" fill="#3ddda3"/>
  <path id="Path_740" data-name="Path 740" d="M45.172,66.647V86.4a3.845,3.845,0,0,1-4.843,3.717l-24.622-6.6h0l-.527-.556a2.678,2.678,0,0,1,0-3.671,2.606,2.606,0,0,1,1.212-.724L29.3,75.1a6.108,6.108,0,0,0,4.524-5.9V58.92l6.786,1.823A6.107,6.107,0,0,1,45.172,66.647Z" transform="translate(-11.183 -45.593)" fill="#307fd5"/>
  <path id="Path_741" data-name="Path 741" d="M22.661,25.964V36.243a6.107,6.107,0,0,1-4.524,5.9L5.225,45.612a2.606,2.606,0,0,0-1.212.724,2.678,2.678,0,0,0,0,3.671l.511.556-.145-.041-.122-.036-.136-.045c-.084-.029-.165-.059-.247-.093A5.984,5.984,0,0,1,2.5,49.593a6.69,6.69,0,0,1-.615-.516l-.143-.14A6.108,6.108,0,0,1,0,44.66V22.234a6.107,6.107,0,0,1,4.524-5.9L4,16.875A2.683,2.683,0,0,0,4,20.56a2.714,2.714,0,0,0,1.249.744Z" transform="translate(0 -12.637)" fill="#293f8c"/>
  <path id="Path_742" data-name="Path 742" d="M229.2,66.019H226.37V47.85H229.2v7.709a3.906,3.906,0,0,1,1.613-1.427,4.75,4.75,0,0,1,2.117-.518,6.157,6.157,0,0,1,2.518.5,5.9,5.9,0,0,1,1.959,1.389,6.443,6.443,0,0,1,1.271,2.036,6.736,6.736,0,0,1,0,4.866,6.456,6.456,0,0,1-1.271,2.036,5.9,5.9,0,0,1-1.959,1.389,6.157,6.157,0,0,1-2.518.507,4.75,4.75,0,0,1-2.117-.52,3.907,3.907,0,0,1-1.622-1.427Zm3.583-2.205a3.3,3.3,0,0,0,1.452-.312,3.578,3.578,0,0,0,1.117-.83,3.619,3.619,0,0,0,.713-1.219,4.56,4.56,0,0,0,0-2.959,3.62,3.62,0,0,0-.713-1.222,3.579,3.579,0,0,0-1.117-.83,3.3,3.3,0,0,0-1.452-.312,3.456,3.456,0,0,0-1.493.312,3.524,3.524,0,0,0-1.131.83,3.6,3.6,0,0,0-.7,1.222,4.562,4.562,0,0,0,0,2.963,3.585,3.585,0,0,0,.715,1.219,3.524,3.524,0,0,0,1.131.83A3.456,3.456,0,0,0,232.781,63.813Z" transform="translate(-175.164 -37.027)" fill="#fff"/>
  <path id="Path_743" data-name="Path 743" d="M292.8,48a2.036,2.036,0,0,1,.611-1.493,2,2,0,0,1,1.47-.611,2.081,2.081,0,0,1,2.1,2.1,2.007,2.007,0,0,1-.608,1.466,2.036,2.036,0,0,1-1.493.611A2.086,2.086,0,0,1,292.8,48Zm.679,4.411H296.3v12.1h-2.827Z" transform="translate(-226.566 -35.517)" fill="#fff"/>
  <path id="Path_744" data-name="Path 744" d="M325,47.85h2.83V66.019H325Z" transform="translate(-251.484 -37.027)" fill="#fff"/>
  <path id="Path_745" data-name="Path 745" d="M354.3,47.85h2.83V66.019H354.3Z" transform="translate(-274.156 -37.027)" fill="#fff"/>
  <path id="Path_746" data-name="Path 746" d="M385.785,78.879q.624.226,1.221.493a4.466,4.466,0,0,1,1.068.638,2.882,2.882,0,0,1,.74.934,3.086,3.086,0,0,1,.274,1.378,3.392,3.392,0,0,1-.378,1.633,3.243,3.243,0,0,1-1.038,1.156,4.712,4.712,0,0,1-1.543.679,7.691,7.691,0,0,1-1.868.226,6.052,6.052,0,0,1-1.871-.285,4.842,4.842,0,0,1-1.57-.844,4.072,4.072,0,0,1-1.09-1.375,4.226,4.226,0,0,1-.4-1.882h2.753a1.946,1.946,0,0,0,.66,1.674,2.771,2.771,0,0,0,1.674.48,2.889,2.889,0,0,0,1.4-.312,1.132,1.132,0,0,0,.57-1.088.972.972,0,0,0-.226-.679,2.212,2.212,0,0,0-.7-.48,10.583,10.583,0,0,0-1.167-.452q-.7-.226-1.66-.6a10.756,10.756,0,0,1-1.156-.507,3.9,3.9,0,0,1-.921-.636,2.371,2.371,0,0,1-.6-.9,3.693,3.693,0,0,1-.208-1.323,3.009,3.009,0,0,1,.364-1.507,3.424,3.424,0,0,1,.986-1.1,4.35,4.35,0,0,1,1.439-.679,6.719,6.719,0,0,1,1.753-.226,5.144,5.144,0,0,1,1.81.31,4.647,4.647,0,0,1,1.468.857,4.1,4.1,0,0,1,.986,1.3,3.714,3.714,0,0,1,.362,1.633H386.15a1.961,1.961,0,0,0-.452-1.357,1.912,1.912,0,0,0-1.491-.507,2.158,2.158,0,0,0-1.233.339,1.1,1.1,0,0,0-.509.979.95.95,0,0,0,.208.638,1.809,1.809,0,0,0,.622.452q.414.192,1.038.414C384.749,78.492,385.231,78.671,385.785,78.879Z" transform="translate(-293.522 -56.712)" fill="#fff"/>
  <path id="Path_747" data-name="Path 747" d="M435.65,73.633h2.83v1.687a3.694,3.694,0,0,1,1.583-1.493,5.218,5.218,0,0,1,2.362-.5,5,5,0,0,1,2.219.452,3.619,3.619,0,0,1,1.414,1.192,4.3,4.3,0,0,1,.611,1.507,10.654,10.654,0,0,1,.167,2.077V85.74h-2.828V79.474a7.56,7.56,0,0,0-.131-1.454,3.364,3.364,0,0,0-.428-1.154,2.2,2.2,0,0,0-.805-.767,2.529,2.529,0,0,0-1.26-.285,2.47,2.47,0,0,0-2.194,1.052,4.544,4.544,0,0,0-.713,2.608v6.255H435.65Z" transform="translate(-337.104 -56.737)" fill="#fff"/>
  <path id="Path_748" data-name="Path 748" d="M503.77,75.274a3.893,3.893,0,0,1,1.622-1.427,4.725,4.725,0,0,1,2.122-.518,6.157,6.157,0,0,1,2.518.5,5.9,5.9,0,0,1,1.959,1.389,6.444,6.444,0,0,1,1.271,2.036,6.737,6.737,0,0,1,0,4.866,6.454,6.454,0,0,1-1.271,2.036,5.9,5.9,0,0,1-1.959,1.389,6.157,6.157,0,0,1-2.518.5,4.728,4.728,0,0,1-2.115-.52,3.893,3.893,0,0,1-1.622-1.427v7.7H500.94V73.638h2.83Zm3.581.57a3.456,3.456,0,0,0-1.493.312,3.525,3.525,0,0,0-1.131.83,3.6,3.6,0,0,0-.715,1.221,4.6,4.6,0,0,0,0,2.959,3.585,3.585,0,0,0,.715,1.219,3.525,3.525,0,0,0,1.131.83,3.456,3.456,0,0,0,1.493.312,3.321,3.321,0,0,0,1.454-.312,3.508,3.508,0,0,0,1.828-2.049,4.562,4.562,0,0,0,0-2.959,3.5,3.5,0,0,0-1.828-2.052A3.321,3.321,0,0,0,507.351,75.844Z" transform="translate(-387.626 -56.742)" fill="#fff"/>
  <path id="Path_749" data-name="Path 749" d="M579.109,73.607V85.7h-2.828V84.067a3.919,3.919,0,0,1-1.622,1.427,4.749,4.749,0,0,1-2.117.52,6.157,6.157,0,0,1-2.518-.507,5.9,5.9,0,0,1-1.959-1.389,6.46,6.46,0,0,1-1.271-2.036,6.736,6.736,0,0,1,0-4.866,6.443,6.443,0,0,1,1.271-2.036,5.9,5.9,0,0,1,1.959-1.389,6.157,6.157,0,0,1,2.518-.5,4.749,4.749,0,0,1,2.117.518,3.919,3.919,0,0,1,1.622,1.427V73.607ZM572.7,83.5a3.409,3.409,0,0,0,1.468-.312,3.525,3.525,0,0,0,1.131-.83,3.806,3.806,0,0,0,.726-1.219,4.336,4.336,0,0,0,0-2.959,3.818,3.818,0,0,0-.726-1.221,3.525,3.525,0,0,0-1.131-.83,3.409,3.409,0,0,0-1.468-.312,3.3,3.3,0,0,0-1.459.312,3.553,3.553,0,0,0-1.117.83,3.6,3.6,0,0,0-.713,1.221,4.563,4.563,0,0,0,0,2.959,3.5,3.5,0,0,0,1.83,2.04A3.3,3.3,0,0,0,572.7,83.5Z" transform="translate(-438.232 -56.711)" fill="#fff"/>
  <path id="Path_750" data-name="Path 750" d="M644.3,93.154a7.678,7.678,0,0,1-2.244-.31,5.055,5.055,0,0,1-1.778-.934,4.319,4.319,0,0,1-1.181-1.559,5.409,5.409,0,0,1-.452-2.181h2.855a2.6,2.6,0,0,0,.921,1.961,3.063,3.063,0,0,0,1.934.636,5.073,5.073,0,0,0,1.194-.131,2.169,2.169,0,0,0,.934-.466,2.283,2.283,0,0,0,.611-.882,3.784,3.784,0,0,0,.226-1.4V85.108a3.694,3.694,0,0,1-1.583,1.493,5.219,5.219,0,0,1-2.362.507,5,5,0,0,1-2.219-.452,3.62,3.62,0,0,1-1.414-1.194,4.3,4.3,0,0,1-.611-1.5,10.653,10.653,0,0,1-.167-2.077V74.7h2.828v6.257a7.547,7.547,0,0,0,.131,1.452,3.376,3.376,0,0,0,.428,1.156,2.2,2.2,0,0,0,.805.765,2.529,2.529,0,0,0,1.258.285,2.472,2.472,0,0,0,2.194-1.05,4.545,4.545,0,0,0,.715-2.608V74.7h2.83V87.888a5.059,5.059,0,0,1-1.506,3.972A6.449,6.449,0,0,1,644.3,93.154Z" transform="translate(-494.177 -57.804)" fill="#fff"/>
</svg>
