<svg id="mtn-group" xmlns="http://www.w3.org/2000/svg" width="49.422" height="49.418" viewBox="0 0 49.422 49.418">
  <path id="Path_1102" data-name="Path 1102" d="M0,49.418H49.422V0H0Z" fill="#fac705"/>
  <path id="Path_1103" data-name="Path 1103" d="M92.739,783.019c12.889,0,23.335-4.3,23.335-9.608S105.626,763.8,92.739,763.8,69.4,768.1,69.4,773.412s10.45,9.608,23.339,9.608" transform="translate(-68.028 -748.701)" fill="#005c87"/>
  <path id="Path_1104" data-name="Path 1104" d="M1150.465,1009.335l.611-2.435h-7.967l-.609,2.435h2.608l-1.279,5.116h2.746l1.281-5.116Z" transform="translate(-1119.914 -986.995)" fill="#fac705"/>
  <path id="Path_1105" data-name="Path 1105" d="M505.763,1006.9h-3.973l-2.53,5.6v-5.6H495.41l-2.41,9.608h2.647l1.568-6.2v6.2h2.044l3.011-6.2-1.443,6.2h2.528Zm17.163,0H520.4l-1.323,5.112-1.206-5.112H515.1l-2.406,9.61h2.53l1.322-5.229,1.324,5.227h2.649Z" transform="translate(-483.254 -986.995)" fill="#fff"/>
  <path id="Path_1106" data-name="Path 1106" d="M1183.846,1423.5l-.346,1.372h2.748l.342-1.372Z" transform="translate(-1160.104 -1395.359)" fill="#211e1e"/>
</svg>
