<svg xmlns="http://www.w3.org/2000/svg" width="27.277" height="54.555" viewBox="0 0 27.277 54.555">
  <g id="transfer" transform="translate(-6)">
    <path id="Path_1108" data-name="Path 1108" d="M12.479,33.6,9.817,30.935a10.811,10.811,0,0,1,0-15.271L18.66,6.819,14.75,2.91A1.7,1.7,0,0,1,15.957,0H30.732a1.705,1.705,0,0,1,1.7,1.7V16.48a1.7,1.7,0,0,1-2.91,1.2l-3.91-3.907L14.889,24.506a4.726,4.726,0,0,0,0,6.681,1.7,1.7,0,1,1-2.409,2.41Z" transform="translate(0.84 0)" fill="#3ddda3"/>
    <path id="Path_1109" data-name="Path 1109" d="M22.48,43.1H7.7a1.705,1.705,0,0,1-1.7-1.7V26.618a1.7,1.7,0,0,1,2.91-1.2l3.91,3.907L23.548,18.591a4.726,4.726,0,0,0,0-6.681A1.705,1.705,0,1,1,25.96,9.5l2.662,2.662a10.811,10.811,0,0,1,0,15.271l-8.845,8.847,3.91,3.91A1.7,1.7,0,0,1,22.48,43.1Z" transform="translate(0 11.457)" fill="#3ddda3"/>
  </g>
</svg>
