<svg xmlns="http://www.w3.org/2000/svg" width="39" height="39" viewBox="0 0 39 39">
  <g id="Group_266" data-name="Group 266" transform="translate(-967 -3463.999)">
    <rect id="Rectangle_278" data-name="Rectangle 278" width="39" height="39" rx="5" transform="translate(967 3463.999)" fill="#3ddda3"/>
    <path id="Add_User" data-name="Add User" d="M10.842,14.353a5.868,5.868,0,0,0,5.851-5.927,5.851,5.851,0,1,0-11.7,0A5.868,5.868,0,0,0,10.842,14.353Zm0,2.9c-4.77,0-8.842.763-8.842,3.809S6.048,24.9,10.842,24.9c4.769,0,8.842-.763,8.842-3.81S15.637,17.255,10.842,17.255Zm12.259-6.4h1.418a1.075,1.075,0,0,1,0,2.15H23.1v1.388a1.06,1.06,0,1,1-2.12,0V13.006H19.565a1.075,1.075,0,0,1,0-2.15h1.416V9.47a1.06,1.06,0,1,1,2.12,0Z" transform="translate(973.21 3469.8)" fill="#fff" fill-rule="evenodd"/>
    <path id="Add_User-2" data-name="Add User" d="M10.842,14.353a5.868,5.868,0,0,0,5.851-5.927,5.851,5.851,0,1,0-11.7,0A5.868,5.868,0,0,0,10.842,14.353Zm0,2.9c-4.77,0-8.842.763-8.842,3.809S6.048,24.9,10.842,24.9c4.769,0,8.842-.763,8.842-3.81S15.637,17.255,10.842,17.255Zm12.259-6.4h1.418a1.075,1.075,0,0,1,0,2.15H23.1v1.388a1.06,1.06,0,1,1-2.12,0V13.006H19.565a1.075,1.075,0,0,1,0-2.15h1.416V9.47a1.06,1.06,0,1,1,2.12,0Z" transform="translate(974.21 3470.8)" fill="#071d49" fill-rule="evenodd"/>
  </g>
</svg>
