<svg xmlns="http://www.w3.org/2000/svg" xmlns:xlink="http://www.w3.org/1999/xlink" width="194" height="29" viewBox="0 0 194 29">
  <defs>
    <clipPath id="clip-path">
      <rect width="194" height="29" fill="none"/>
    </clipPath>
    <clipPath id="clip-path-2">
      <rect id="Rectangle_55" data-name="Rectangle 55" width="28" height="14" transform="translate(0.451 0.363)" fill="#fff"/>
    </clipPath>
  </defs>
  <g id="Repeat_Grid_1" data-name="Repeat Grid 1" clip-path="url(#clip-path)">
    <g id="Group_115" data-name="Group 115" transform="translate(-462.172 -805.588)">
      <rect id="Rectangle_287" data-name="Rectangle 287" width="30" height="29" rx="3" transform="translate(462.172 805.588)" fill="#ecb323"/>
      <g id="Mask_Group_2" data-name="Mask Group 2" transform="translate(462.722 813.225)" clip-path="url(#clip-path-2)">
        <path id="star" d="M15.72,6.713A.836.836,0,0,0,15,6.137L10.45,5.724l-1.8-4.21a.838.838,0,0,0-1.541,0l-1.8,4.209-4.55.413A.839.839,0,0,0,.286,7.6l3.438,3.016L2.711,15.084a.836.836,0,0,0,1.246.9L7.88,13.644,11.8,15.989a.838.838,0,0,0,1.246-.9l-1.014-4.466L15.474,7.6A.838.838,0,0,0,15.72,6.713Zm0,0" transform="translate(6.568 -1.332)" fill="#fff"/>
      </g>
    </g>
    <g id="Group_115-2" data-name="Group 115" transform="translate(-422.172 -805.588)">
      <rect id="Rectangle_287-2" data-name="Rectangle 287" width="30" height="29" rx="3" transform="translate(462.172 805.588)" fill="#ecb323"/>
      <g id="Mask_Group_2-2" data-name="Mask Group 2" transform="translate(462.722 813.225)" clip-path="url(#clip-path-2)">
        <path id="star-2" data-name="star" d="M15.72,6.713A.836.836,0,0,0,15,6.137L10.45,5.724l-1.8-4.21a.838.838,0,0,0-1.541,0l-1.8,4.209-4.55.413A.839.839,0,0,0,.286,7.6l3.438,3.016L2.711,15.084a.836.836,0,0,0,1.246.9L7.88,13.644,11.8,15.989a.838.838,0,0,0,1.246-.9l-1.014-4.466L15.474,7.6A.838.838,0,0,0,15.72,6.713Zm0,0" transform="translate(6.568 -1.332)" fill="#fff"/>
      </g>
    </g>
    <g id="Group_115-3" data-name="Group 115" transform="translate(-382.172 -805.588)">
      <rect id="Rectangle_287-3" data-name="Rectangle 287" width="30" height="29" rx="3" transform="translate(462.172 805.588)" fill="#ecb323"/>
      <g id="Mask_Group_2-3" data-name="Mask Group 2" transform="translate(462.722 813.225)" clip-path="url(#clip-path-2)">
        <path id="star-3" data-name="star" d="M15.72,6.713A.836.836,0,0,0,15,6.137L10.45,5.724l-1.8-4.21a.838.838,0,0,0-1.541,0l-1.8,4.209-4.55.413A.839.839,0,0,0,.286,7.6l3.438,3.016L2.711,15.084a.836.836,0,0,0,1.246.9L7.88,13.644,11.8,15.989a.838.838,0,0,0,1.246-.9l-1.014-4.466L15.474,7.6A.838.838,0,0,0,15.72,6.713Zm0,0" transform="translate(6.568 -1.332)" fill="#fff"/>
      </g>
    </g>
    <g id="Group_115-4" data-name="Group 115" transform="translate(-342.172 -805.588)">
      <rect id="Rectangle_287-4" data-name="Rectangle 287" width="30" height="29" rx="3" transform="translate(462.172 805.588)" fill="#ecb323"/>
      <g id="Mask_Group_2-4" data-name="Mask Group 2" transform="translate(462.722 813.225)" clip-path="url(#clip-path-2)">
        <path id="star-4" data-name="star" d="M15.72,6.713A.836.836,0,0,0,15,6.137L10.45,5.724l-1.8-4.21a.838.838,0,0,0-1.541,0l-1.8,4.209-4.55.413A.839.839,0,0,0,.286,7.6l3.438,3.016L2.711,15.084a.836.836,0,0,0,1.246.9L7.88,13.644,11.8,15.989a.838.838,0,0,0,1.246-.9l-1.014-4.466L15.474,7.6A.838.838,0,0,0,15.72,6.713Zm0,0" transform="translate(6.568 -1.332)" fill="#fff"/>
      </g>
    </g>
    <g id="Group_115-5" data-name="Group 115" transform="translate(-302.172 -805.588)">
      <rect id="Rectangle_287-5" data-name="Rectangle 287" width="30" height="29" rx="3" transform="translate(462.172 805.588)" fill="#ecb323"/>
      <g id="Mask_Group_2-5" data-name="Mask Group 2" transform="translate(462.722 813.225)" clip-path="url(#clip-path-2)">
        <path id="star-5" data-name="star" d="M15.72,6.713A.836.836,0,0,0,15,6.137L10.45,5.724l-1.8-4.21a.838.838,0,0,0-1.541,0l-1.8,4.209-4.55.413A.839.839,0,0,0,.286,7.6l3.438,3.016L2.711,15.084a.836.836,0,0,0,1.246.9L7.88,13.644,11.8,15.989a.838.838,0,0,0,1.246-.9l-1.014-4.466L15.474,7.6A.838.838,0,0,0,15.72,6.713Zm0,0" transform="translate(6.568 -1.332)" fill="#fff"/>
      </g>
    </g>
  </g>
</svg>
