<svg xmlns="http://www.w3.org/2000/svg" width="39" height="39" viewBox="0 0 39 39">
  <g id="Group_267" data-name="Group 267" transform="translate(-967 -3533)">
    <rect id="Rectangle_278" data-name="Rectangle 278" width="39" height="39" rx="5" transform="translate(967 3533)" fill="#3ddda3"/>
    <path id="thumbs-up" d="M18.016,9.748c-.183-.488,4.866-5,1.922-8.65-.689-.854-3.026,4.091-6.346,6.329C11.761,8.662,7.5,11.291,7.5,12.744v9.408c0,1.748,6.757,3.6,11.891,3.6C21.273,25.75,24,13.958,24,12.085S18.2,10.237,18.016,9.748ZM6.125,9.878A4.076,4.076,0,0,0,2,14.173v6.666a3.94,3.94,0,0,0,4.125,4.154c.9,0-1.375-.787-1.375-3.108V13.122C4.75,10.691,7.028,9.878,6.125,9.878Z" transform="translate(974 3539.625)" fill="#fff"/>
    <path id="thumbs-up-2" data-name="thumbs-up" d="M18.016,9.748c-.183-.488,4.866-5,1.922-8.65-.689-.854-3.026,4.091-6.346,6.329C11.761,8.662,7.5,11.291,7.5,12.744v9.408c0,1.748,6.757,3.6,11.891,3.6C21.273,25.75,24,13.958,24,12.085S18.2,10.237,18.016,9.748ZM6.125,9.878A4.076,4.076,0,0,0,2,14.173v6.666a3.94,3.94,0,0,0,4.125,4.154c.9,0-1.375-.787-1.375-3.108V13.122C4.75,10.691,7.028,9.878,6.125,9.878Z" transform="translate(975 3540.625)" fill="#071d49"/>
  </g>
</svg>
