<svg xmlns="http://www.w3.org/2000/svg" width="47" height="47" viewBox="0 0 47 47">
  <g id="Group_263" data-name="Group 263" transform="translate(-976 -2583.999)">
    <rect id="Rectangle_278" data-name="Rectangle 278" width="47" height="47" rx="5" transform="translate(976 2583.999)" fill="#3ddda3"/>
    <path id="Path_1087" data-name="Path 1087" d="M5.809,78.965a8.27,8.27,0,1,0,8.27-8.27A8.271,8.271,0,0,0,5.809,78.965Zm5.074.007v1.595L7.586,78.1l3.269-2.473v1.727h2.369l.876,1.107.851-1.134,2.419.027-.025-1.675,3.4,2.446L17.4,80.489l-.025-1.577-1.727.007-.719.574.025,2.7H16.6L14.075,85.02l-2.421-2.857,1.629.023-.007-2.65-.69-.579Zm28.06,6.762-1.175-.619-15.45,9.524-9.507-4.123-1.178.726,10.684,4.745Zm0,2.246-1.175-.619L22.375,97.137l-9.563-4.374-1.178.726,10.741,4.994Zm0-4.492L28.161,78.545l-5.514,3.487a9.1,9.1,0,0,1-8.567,6.031c-.3,0-.6-.016-.9-.046L11.634,89l10.782,4.942ZM21.982,86.01c0-1.116,1.856-2.224,4.146-2.224s4.143,1.107,4.143,2.224-1.854,2.223-4.143,2.223S21.982,87.126,21.982,86.01Z" transform="translate(977.124 2522.493)" fill="#fff" fill-rule="evenodd"/>
  </g>
</svg>
