<svg xmlns="http://www.w3.org/2000/svg" width="47" height="47" viewBox="0 0 47 47">
  <g id="Group_264" data-name="Group 264" transform="translate(-1375 -2583.999)">
    <rect id="Rectangle_278" data-name="Rectangle 278" width="47" height="47" rx="5" transform="translate(1375 2583.999)" fill="#3ddda3"/>
    <g id="wallet-filled-money-tool" transform="translate(1387.279 2596.311)">
      <g id="Group_93" data-name="Group 93" transform="translate(0 0)">
        <path id="Path_1072" data-name="Path 1072" d="M160.725,21.941l8.947-2.442-.474-.958a1.261,1.261,0,0,0-1.689-.57L159.5,21.941Z" transform="translate(-155.48 -17.84)" fill="#fff"/>
        <path id="Path_1073" data-name="Path 1073" d="M330.854,86.46a1.259,1.259,0,0,0-.333.045l-2.1.575L322,88.832h10.462l-.393-1.442A1.258,1.258,0,0,0,330.854,86.46Z" transform="translate(-313.885 -84.731)" fill="#fff"/>
        <path id="Path_1074" data-name="Path 1074" d="M19.89,215.56H1.263a1.262,1.262,0,0,0-1.217.93,1.3,1.3,0,0,0-.045.33v14.04a1.261,1.261,0,0,0,1.26,1.26H19.887a1.261,1.261,0,0,0,1.26-1.26v-3.516H13.67a2.144,2.144,0,0,1-2.142-2.142v-2.8a2.139,2.139,0,0,1,2.14-2.14h7.48v-3.44A1.257,1.257,0,0,0,19.89,215.56Z" transform="translate(0 -210.577)" fill="#fff"/>
        <path id="Path_1075" data-name="Path 1075" d="M502.022,437.091a1.259,1.259,0,0,0-.441-.262,1.287,1.287,0,0,0-.408-.068H493.66a1.26,1.26,0,0,0-1.26,1.26v2.8a1.261,1.261,0,0,0,1.26,1.26h7.513a1.284,1.284,0,0,0,.408-.068,1.222,1.222,0,0,0,.441-.262,1.256,1.256,0,0,0,.411-.93v-2.805A1.256,1.256,0,0,0,502.022,437.091Zm-5.731,2.583a.63.63,0,0,1-.63.63h-.418a.63.63,0,0,1-.63-.63v-.418a.617.617,0,0,1,.242-.494.637.637,0,0,1,.388-.136h.418a.63.63,0,0,1,.63.63v.418Z" transform="translate(-479.99 -426.203)" fill="#fff"/>
      </g>
    </g>
  </g>
</svg>
